<svg width="256" height="256" xmlns="http://www.w3.org/2000/svg" version="1.1" xml:space="preserve">
 <g>
  <title>Layer 1</title>
  <g transform="translate(1.40659 1.40659) scale(2.81 2.81)" stroke=" none" stroke-width="0" stroke-dasharray=" none" stroke-linecap=" butt" stroke-linejoin=" miter" stroke-miterlimit="10" fill=" none" fill-rule=" nonzero" id="svg_1">
   <path d="m30.063,90c-6.765,0 -13.323,-3.634 -16.759,-10.009c-4.669,-8.691 -1.799,-19.627 6.535,-24.901c0.049,-0.03 0.099,-0.06 0.15,-0.086c0.673,-0.349 1.33,-0.708 1.989,-1.081c-0.487,-0.279 -0.972,-0.555 -1.464,-0.83c-5.12,-2.956 -8.263,-7.114 -9.115,-12.038c-1.115,-6.588 -1.112,-14.914 8.886,-20.927c7.687,-4.595 15.564,-9.093 23.183,-13.444c2.527,-1.443 5.056,-2.887 7.585,-4.338c5.279,-3.008 11.797,-3.129 17.436,-0.329c5.692,2.826 9.569,8.152 10.373,14.247c1.166,7.769 -2.72,15.545 -9.677,19.315c-0.449,0.254 -0.885,0.504 -1.313,0.751c0.409,0.244 0.816,0.483 1.227,0.715c5.715,3.216 9.323,8.684 9.899,14.999c0.568,6.244 -1.953,12.194 -6.916,16.325c-1.584,1.287 -3.325,2.268 -5.008,3.216c-0.487,0.274 -0.975,0.549 -1.455,0.83c-7.804,4.547 -17.067,9.922 -26.608,15.32c-2.849,1.536 -5.92,2.265 -8.948,2.265zm-8.156,-31.484c-6.513,4.174 -8.746,12.756 -5.08,19.579c3.927,7.284 13.009,10.041 20.251,6.138c9.485,-5.367 18.734,-10.735 26.526,-15.275c0.497,-0.29 1.002,-0.574 1.507,-0.86c1.609,-0.906 3.129,-1.762 4.432,-2.821c3.918,-3.26 5.918,-7.958 5.472,-12.872c-0.454,-4.984 -3.326,-9.314 -7.88,-11.877c-0.734,-0.415 -1.449,-0.845 -2.191,-1.292c-0.628,-0.378 -1.277,-0.769 -1.975,-1.172c-0.61,-0.352 -0.99,-0.999 -1.001,-1.704c-0.01,-0.705 0.352,-1.363 0.951,-1.732c1.398,-0.861 2.773,-1.671 4.329,-2.551c5.513,-2.987 8.576,-9.111 7.654,-15.256c-0.635,-4.808 -3.695,-8.99 -8.192,-11.223c-4.445,-2.207 -9.558,-2.125 -13.671,0.219c-2.526,1.45 -5.057,2.895 -7.587,4.339c-7.601,4.341 -15.462,8.83 -23.11,13.401c-6.346,3.817 -8.376,8.691 -7,16.821c0.65,3.762 3.056,6.871 7.149,9.234c1.452,0.814 2.868,1.639 4.46,2.583c0.606,0.359 0.979,1.011 0.981,1.715c0.002,0.705 -0.367,1.359 -0.971,1.721c-1.745,1.05 -3.333,1.991 -5.054,2.885z" stroke-linecap=" butt" stroke="#ffffff" stroke-dasharray=" none" stroke-linejoin=" miter" stroke-miterlimit="10" fill="#ffffff" fill-rule=" nonzero" id="svg_2"/>
   <path d="m36.741,59.95c-0.345,0 -0.69,-0.089 -0.999,-0.268c-0.62,-0.357 -1.002,-1.018 -1.002,-1.733l0,-25.532c0,-0.715 0.381,-1.375 1,-1.732c0.619,-0.357 1.382,-0.357 2,0l22.085,12.737c0.619,0.357 1,1.016 1.001,1.731c0.001,0.715 -0.38,1.374 -0.997,1.733l-22.085,12.795c-0.311,0.18 -0.657,0.269 -1.003,0.269zm2,-24.07l0,18.6l16.088,-9.321l-16.088,-9.279z" stroke-linecap=" butt" stroke="#ffffff" stroke-dasharray=" none" stroke-linejoin=" miter" stroke-miterlimit="10" fill="#ffffff" fill-rule=" nonzero" id="svg_3"/>
  </g>
 </g>

</svg>