<svg width="90" height="20" xmlns="http://www.w3.org/2000/svg" preserveAspectRatio="xMidYMid meet">
 <g>
  <title>Layer 1</title>
  <g id="svg_1">
   <path d="m30.19492,3.12324c-0.3292,-1.23001 -1.2959,-2.19662 -2.5259,-2.52587c-2.2271,-0.59737 -11.1618,-0.59737 -11.1618,-0.59737c0,0 -8.93458,0 -11.16177,0.59737c-1.23,0.32925 -2.19661,1.29586 -2.52586,2.52587c-0.59737,2.22718 -0.59737,6.87676 -0.59737,6.87676c0,0 0,4.6496 0.59737,6.8768c0.32925,1.23 1.29586,2.1966 2.52586,2.5258c2.22719,0.5974 11.16177,0.5974 11.16177,0.5974c0,0 8.9347,0 11.1618,-0.5974c1.23,-0.3292 2.1967,-1.2958 2.5259,-2.5258c0.5974,-2.2272 0.5974,-6.8768 0.5974,-6.8768c0,0 -0.0024,-4.64958 -0.5974,-6.87676z" fill="#FF0000" id="svg_2"/>
   <path d="m13.64752,14.2854l7.4224,-4.285l-7.4224,-4.28507l0,8.57007z" fill="white" id="svg_3"/>
  </g>
  <g id="svg_4">
   <g id="svg_5">
    <path fill="#ffffff" d="m34.6024,13.0036l-3.2079,-11.58514l2.7987,0l1.1242,5.25164c0.2869,1.29351 0.4962,2.39652 0.6326,3.30903l0.0823,0c0.0941,-0.65381 0.3058,-1.74976 0.6327,-3.29021l1.1641,-5.27046l2.7987,0l-3.2479,11.58514l0,5.5574l-2.7798,0l0,-5.5574l0.0023,0z" id="svg_6"/>
    <path fill="#ffffff" d="m41.4697,18.1937c-0.5644,-0.381 -0.9666,-0.9737 -1.2065,-1.778c-0.2375,-0.8043 -0.3574,-1.872 -0.3574,-3.2079l0,-1.818c0,-1.3476 0.1364,-2.43175 0.4092,-3.24784c0.2728,-0.81608 0.6985,-1.41345 1.277,-1.78739c0.5786,-0.37394 1.3382,-0.56209 2.279,-0.56209c0.9266,0 1.6674,0.1905 2.2271,0.5715c0.5574,0.38099 0.9666,0.97836 1.2253,1.78739c0.2587,0.81138 0.3881,1.89083 0.3881,3.23843l0,1.818c0,1.3359 -0.127,2.4083 -0.3786,3.2173c-0.2517,0.8114 -0.6609,1.4041 -1.2254,1.778c-0.5644,0.374 -1.3311,0.5621 -2.2977,0.5621c-0.9972,0.0023 -1.7756,-0.1905 -2.3401,-0.5715zm3.1656,-1.9614c0.1552,-0.4092 0.2352,-1.0748 0.2352,-2.0014l0,-3.9017c0,-0.89843 -0.0776,-1.55695 -0.2352,-1.97087c-0.1576,-0.41627 -0.4327,-0.62323 -0.8279,-0.62323c-0.3809,0 -0.6514,0.20696 -0.8066,0.62323c-0.1576,0.41628 -0.2352,1.07244 -0.2352,1.97087l0,3.9017c0,0.9266 0.0752,1.5945 0.2258,2.0014c0.1505,0.4092 0.4209,0.6138 0.816,0.6138c0.3952,0 0.6703,-0.2046 0.8279,-0.6138z" id="svg_7"/>
    <path fill="#ffffff" d="m56.8154,18.5634l-2.206,0l-0.2446,-1.5334l-0.0611,0c-0.5998,1.1571 -1.4982,1.7356 -2.6976,1.7356c-0.8302,0 -1.444,-0.2728 -1.8391,-0.816c-0.3951,-0.5457 -0.5927,-1.397 -0.5927,-2.5541l0,-9.35799l2.8199,0l0,9.19329c0,0.5598 0.0611,0.9572 0.1834,1.1948c0.1223,0.2375 0.3269,0.3574 0.6138,0.3574c0.2446,0 0.4798,-0.0752 0.7056,-0.2257c0.2258,-0.1506 0.3904,-0.3411 0.5009,-0.5715l0,-9.95064l2.8175,0l0,12.52824z" id="svg_8"/>
    <path fill="#ffffff" d="m64.4755,3.68758l-2.7987,0l0,14.87532l-2.7587,0l0,-14.87532l-2.7987,0l0,-2.26717l8.3561,0l0,2.26717z" id="svg_9"/>
    <path fill="#ffffff" d="m71.2768,18.5634l-2.206,0l-0.2446,-1.5334l-0.0611,0c-0.5997,1.1571 -1.4981,1.7356 -2.6976,1.7356c-0.8302,0 -1.444,-0.2728 -1.8391,-0.816c-0.3951,-0.5457 -0.5927,-1.397 -0.5927,-2.5541l0,-9.35799l2.8199,0l0,9.19329c0,0.5598 0.0611,0.9572 0.1834,1.1948c0.1223,0.2375 0.3269,0.3574 0.6139,0.3574c0.2445,0 0.4797,-0.0752 0.7055,-0.2257c0.2258,-0.1506 0.3904,-0.3411 0.5009,-0.5715l0,-9.95064l2.8175,0l0,12.52824z" id="svg_10"/>
    <path fill="#ffffff" d="m80.609,8.0387c-0.1717,-0.79021 -0.4469,-1.36171 -0.8278,-1.71684c-0.381,-0.35512 -0.9055,-0.53151 -1.5734,-0.53151c-0.5174,0 -1.0019,0.14581 -1.4511,0.43979c-0.4492,0.29398 -0.7973,0.67733 -1.0419,1.15475l-0.0211,0l0,-6.59925l-2.7164,0l0,17.77516l2.3283,0l0.2869,-1.1853l0.0612,0c0.2187,0.4233 0.5456,0.7549 0.9807,1.0019c0.4351,0.2446 0.9196,0.3669 1.4511,0.3669c0.9525,0 1.6557,-0.4398 2.1049,-1.3171c0.4492,-0.8796 0.6749,-2.2507 0.6749,-4.118l0,-1.9826c0,-1.39938 -0.087,-2.49768 -0.2563,-3.2879zm-2.5847,5.1105c0,0.9125 -0.0376,1.6275 -0.1129,2.1449c-0.0752,0.5174 -0.1999,0.8867 -0.3786,1.103c-0.1764,0.2187 -0.4163,0.3269 -0.715,0.3269c-0.2328,0 -0.4468,-0.0541 -0.6444,-0.1646c-0.1975,-0.1082 -0.3574,-0.2728 -0.4797,-0.4892l0,-7.10958c0.094,-0.34102 0.2587,-0.61853 0.4915,-0.83725c0.2305,-0.21872 0.4845,-0.32691 0.7549,-0.32691c0.287,0 0.508,0.11289 0.6633,0.33632c0.1575,0.22577 0.2657,0.60207 0.3269,1.13358c0.0611,0.53151 0.0917,1.28644 0.0917,2.26714l0,1.6157l0.0023,0z" id="svg_11"/>
    <path fill="#ffffff" d="m84.8657,13.8712c0,0.8043 0.0235,1.4064 0.0706,1.8086c0.047,0.4021 0.1458,0.6938 0.2963,0.8796c0.1505,0.1834 0.381,0.2751 0.6938,0.2751c0.421,0 0.7126,-0.1646 0.8678,-0.4915c0.1576,-0.3269 0.2423,-0.8725 0.2564,-1.6345l2.4318,0.1434c0.0141,0.1082 0.0211,0.2587 0.0211,0.4492c0,1.1571 -0.3175,2.0226 -0.9501,2.5941c-0.6326,0.5715 -1.5287,0.8584 -2.6858,0.8584c-1.3899,0 -2.3636,-0.4351 -2.921,-1.3076c-0.5597,-0.8725 -0.8372,-2.2201 -0.8372,-4.0452l0,-2.1872c0,-1.87908 0.2893,-3.25255 0.8678,-4.11802c0.5786,-0.86548 1.5687,-1.29822 2.9727,-1.29822c0.9666,0 1.7098,0.17639 2.2272,0.53152c0.5174,0.35512 0.8819,0.90545 1.0936,1.65569c0.2117,0.75023 0.3175,1.78504 0.3175,3.10673l0,2.1449l-4.7225,0l0,0.635zm0.3575,-5.90309c-0.1435,0.17638 -0.2375,0.46566 -0.2869,0.86782c-0.0471,0.40217 -0.0706,1.01129 -0.0706,1.82977l0,0.8984l2.0626,0l0,-0.8984c0,-0.80437 -0.0282,-1.41349 -0.0823,-1.82977c-0.0541,-0.41627 -0.1529,-0.7079 -0.2964,-0.87958c-0.1434,-0.16933 -0.3645,-0.25635 -0.6632,-0.25635c-0.301,0.00235 -0.5221,0.09172 -0.6632,0.26811z" id="svg_12"/>
   </g>
  </g>
 </g>

</svg>